<svg width="60" height="69" viewBox="0 0 60 69" fill="none" xmlns="http://www.w3.org/2000/svg">
<path d="M29.9634 68.3956L5.54574 61.6171L0.10437 0.585693H59.8957L54.4485 61.6075L29.9634 68.3956Z" fill="#264DE4"/>
<path d="M49.7852 57.7219L54.4401 5.57593H30V63.2071L49.7852 57.7219Z" fill="#2965F1"/>
<path d="M12.5786 28.2115L13.2495 35.6967H30V28.2115H12.5786Z" fill="#EBEBEB"/>
<path d="M11.2306 13.0613L11.911 20.5466H30V13.0613H11.2306Z" fill="#EBEBEB"/>
<path d="M30.0001 47.6515L29.9673 47.6603L21.6309 45.4093L21.098 39.4395H13.584L14.6327 51.1924L29.9656 55.4489L30.0001 55.4393V47.6515Z" fill="#EBEBEB"/>
<path d="M47.3735 28.2116L48.7248 13.0613H29.9741V20.5466H40.5216L39.8405 28.2116H29.9741V35.6968H39.1914L38.3225 45.4046L29.9741 47.6579V55.4453L45.3193 51.1924L45.4319 49.9278L47.1908 30.2216L47.3735 28.2116Z" fill="white"/>
</svg>
