<svg width="60" height="68" viewBox="0 0 60 68" fill="none" xmlns="http://www.w3.org/2000/svg">
<path d="M59.7913 0L54.3442 61.0218L29.8591 67.8099L5.44137 61.0314L0 0H59.7913Z" fill="#E44D26"/>
<path d="M29.8956 62.6214L49.6808 57.1362L54.3357 4.99023H29.8956V62.6214Z" fill="#F16529"/>
<path d="M19.3067 19.9609H29.8957V12.4756H11.1262L11.3054 14.4838L13.1451 35.1111H29.8957V27.6259H19.9907L19.3067 19.9609Z" fill="#EBEBEB"/>
<path d="M20.9936 38.8538H13.4796L14.5283 50.6067L29.8613 54.8632L29.8957 54.8536V47.0659L29.8629 47.0746L21.5265 44.8236L20.9936 38.8538Z" fill="#EBEBEB"/>
<path d="M29.8698 35.111H39.087L38.2182 44.8188L29.8698 47.0721V54.8596L45.2149 50.6067L45.3275 49.3421L47.0865 29.6359L47.2691 27.6259H29.8698V35.111Z" fill="white"/>
<path d="M29.8698 19.9426V19.9609H47.9502L48.1004 18.2784L48.4414 14.4838L48.6204 12.4756H29.8698V19.9426Z" fill="white"/>
</svg>
