<svg width="48" height="48" viewBox="0 0 48 48" fill="none" xmlns="http://www.w3.org/2000/svg">
<path d="M42 32V38C42 41.314 33.94 44 24 44C14.06 44 6 41.314 6 38V32C6 35.314 14.06 38 24 38C33.94 38 42 35.314 42 32ZM24 30C14.06 30 6 27.314 6 24V30C6 33.314 14.06 36 24 36C33.94 36 42 33.314 42 30V24C42 27.314 33.94 30 24 30ZM24 4C14.06 4 6 6.686 6 10V14C6 17.314 14.06 20 24 20C33.94 20 42 17.314 42 14V10C42 6.686 33.94 4 24 4ZM24 22C14.06 22 6 19.314 6 16V22C6 25.314 14.06 28 24 28C33.94 28 42 25.314 42 22V16C42 19.314 33.94 22 24 22Z" fill="white"/>
</svg>
