<svg width="48" height="48" viewBox="0 0 48 48" fill="none" xmlns="http://www.w3.org/2000/svg">
<path d="M17.7045 37.1175C17.7045 37.1175 15.8685 38.187 19.008 38.5455C22.812 38.9835 24.7575 38.922 28.9455 38.124C28.9455 38.124 30.045 38.82 31.5855 39.4215C22.188 43.446 10.32 39.18 17.703 37.1175H17.7045ZM16.554 31.8675C16.554 31.8675 14.4915 33.39 17.6325 33.7095C21.705 34.131 24.906 34.1715 30.4605 33.102C30.4605 33.102 31.227 33.876 32.439 34.3035C21.0795 37.623 8.42249 34.5615 16.5555 31.8675H16.554ZM26.2335 22.9545C28.545 25.6185 25.623 28.017 25.623 28.017C25.623 28.017 31.4985 24.9765 28.803 21.1815C26.2815 17.634 24.3435 15.8775 34.8105 9.8055C34.8105 9.8055 18.381 13.908 26.232 22.956L26.2335 22.9545ZM38.6565 41.0085C38.6565 41.0085 40.017 42.1245 37.164 42.993C31.7415 44.6325 14.5935 45.1245 9.82799 43.0545C8.11799 42.312 11.328 41.274 12.336 41.0625C13.3905 40.8285 13.992 40.8765 13.992 40.8765C12.0855 39.5325 1.67999 43.509 8.70449 44.649C27.8685 47.7585 43.632 43.251 38.6565 41.0085V41.0085ZM18.5865 26.4225C18.5865 26.4225 9.86099 28.4925 15.492 29.2425C17.8755 29.562 22.6185 29.493 27.0405 29.118C30.648 28.812 34.275 28.164 34.275 28.164C34.275 28.164 33.0015 28.71 32.079 29.3445C23.2185 31.6725 6.10349 30.5865 11.0325 28.2045C15.1965 26.196 18.5865 26.4225 18.5865 26.4225V26.4225ZM34.2345 35.172C43.2345 30.4845 39.0705 25.992 36.1725 26.6025C35.46 26.742 35.1405 26.877 35.1405 26.877C35.1405 26.877 35.3985 26.4615 35.907 26.283C41.6565 24.2595 46.0785 32.2425 34.0545 35.4075C34.0545 35.4 34.197 35.283 34.2345 35.1735V35.172ZM28.8045 0C28.8045 0 33.7905 4.9845 24.0705 12.6555C16.2825 18.8115 22.296 22.32 24.0705 26.328C19.524 22.2255 16.188 18.618 18.423 15.258C21.711 10.3125 30.813 7.9215 28.8045 0ZM19.4685 47.8515C28.11 48.3975 41.382 47.5395 41.7045 43.4535C41.7045 43.4535 41.094 45 34.554 46.233C27.18 47.6235 18.078 47.4585 12.6795 46.569C12.6795 46.569 13.7895 47.4825 19.467 47.8515H19.4685Z" fill="white"/>
</svg>
