<svg width="19" height="19" viewBox="0 0 19 19" fill="none" xmlns="http://www.w3.org/2000/svg">
<path d="M14.5667 1.45667C13.0783 0.538333 11.3683 0 9.5 0V1.45667H14.5667Z" fill="#ED4C5C"/>
<path d="M9.5 2.91333H16.34C15.8017 2.375 15.2 1.86833 14.5667 1.45667H9.5V2.91333Z" fill="white"/>
<path d="M9.5 4.37H17.5117C17.1633 3.83166 16.7833 3.35666 16.3717 2.91333H9.5V4.37Z" fill="#ED4C5C"/>
<path d="M9.5 5.82666H18.2717C18.05 5.31999 17.7967 4.81333 17.5117 4.37H9.5V5.82666Z" fill="white"/>
<path d="M9.5 7.28333H18.7467C18.62 6.77666 18.4617 6.30166 18.2717 5.82666H9.5V7.28333Z" fill="#ED4C5C"/>
<path d="M9.5 8.77161H18.9683C18.9367 8.26494 18.8417 7.78994 18.7467 7.31494H9.5V8.77161Z" fill="white"/>
<path d="M18.9683 8.77173H9.5V9.50006H0C0 9.75339 -3.06716e-08 9.97506 0.0316666 10.2284H18.9683C19 9.97506 19 9.75339 19 9.50006C19 9.24673 19 8.9934 18.9683 8.77173Z" fill="#ED4C5C"/>
<path d="M0.253313 11.6849H18.7466C18.8733 11.2099 18.9366 10.7349 18.9683 10.2283H0.0316467C0.0633134 10.7033 0.126647 11.2099 0.253313 11.6849Z" fill="white"/>
<path d="M0.728326 13.1417H18.2717C18.4617 12.6667 18.62 12.1917 18.7467 11.6851H0.253326C0.379993 12.1917 0.538326 12.6667 0.728326 13.1417Z" fill="#ED4C5C"/>
<path d="M1.48833 14.5984H17.5117C17.7967 14.1234 18.05 13.6484 18.2717 13.1417H0.728333C0.949999 13.6484 1.20333 14.1234 1.48833 14.5984Z" fill="white"/>
<path d="M2.62834 16.0549H16.3717C16.7833 15.6116 17.195 15.1049 17.5117 14.5983H1.48834C1.80501 15.1366 2.21668 15.6116 2.62834 16.0549Z" fill="#ED4C5C"/>
<path d="M4.40166 17.5117H14.5983C15.2633 17.1001 15.8333 16.5934 16.3717 16.0551H2.62833C3.16666 16.6251 3.76833 17.1001 4.40166 17.5117Z" fill="white"/>
<path d="M9.50004 18.9999C11.3684 18.9999 13.11 18.4616 14.5984 17.5116H4.4017C5.89004 18.4616 7.6317 18.9999 9.50004 18.9999Z" fill="#ED4C5C"/>
<path d="M4.43333 1.45667C3.76833 1.86833 3.16667 2.375 2.62833 2.91333C2.185 3.35667 1.805 3.86333 1.48833 4.37C1.20333 4.845 0.918333 5.32 0.728333 5.82667C0.538333 6.30167 0.38 6.77667 0.253333 7.28333C0.126667 7.75833 0.0633333 8.23333 0.0316666 8.74C-3.06716e-08 8.99333 0 9.24667 0 9.5H9.5V0C7.63167 0 5.92167 0.538333 4.43333 1.45667Z" fill="#428BC1"/>
<path d="M7.28336 0.31665L7.44169 0.79165H7.91669L7.53669 1.10832L7.66336 1.58332L7.28336 1.29832L6.90336 1.58332L7.03003 1.10832L6.65003 0.79165H7.12503L7.28336 0.31665ZM8.55003 2.21665L8.70836 2.69165H9.18336L8.80336 3.00832L8.93003 3.48332L8.55003 3.19832L8.17003 3.48332L8.29669 3.00832L7.91669 2.69165H8.39169L8.55003 2.21665ZM6.01669 2.21665L6.17503 2.69165H6.65003L6.27003 3.00832L6.39669 3.48332L6.01669 3.19832L5.63669 3.48332L5.76336 3.00832L5.38336 2.69165H5.85836L6.01669 2.21665ZM7.28336 4.11665L7.44169 4.59165H7.91669L7.53669 4.90832L7.66336 5.38332L7.28336 5.09832L6.90336 5.38332L7.03003 4.90832L6.65003 4.59165H7.12503L7.28336 4.11665ZM4.75003 4.11665L4.90836 4.59165H5.38336L5.00336 4.90832L5.13003 5.38332L4.75003 5.09832L4.37003 5.38332L4.49669 4.90832L4.11669 4.59165H4.59169L4.75003 4.11665ZM2.21669 4.11665L2.37503 4.59165H2.85003L2.47003 4.90832L2.59669 5.38332L2.21669 5.09832L1.83669 5.38332L1.96336 4.90832L1.58336 4.59165H2.05836L2.21669 4.11665ZM8.55003 6.01665L8.70836 6.49165H9.18336L8.80336 6.80832L8.93003 7.28332L8.55003 6.99832L8.17003 7.28332L8.29669 6.80832L7.91669 6.49165H8.39169L8.55003 6.01665ZM6.01669 6.01665L6.17503 6.49165H6.65003L6.27003 6.80832L6.39669 7.28332L6.01669 6.99832L5.63669 7.28332L5.76336 6.80832L5.38336 6.49165H5.85836L6.01669 6.01665ZM3.48336 6.01665L3.64169 6.49165H4.11669L3.73669 6.80832L3.86336 7.28332L3.48336 6.99832L3.10336 7.28332L3.23003 6.80832L2.85003 6.49165H3.32503L3.48336 6.01665ZM7.28336 7.91665L7.44169 8.39165H7.91669L7.53669 8.70832L7.66336 9.18332L7.28336 8.89832L6.90336 9.18332L7.03003 8.70832L6.65003 8.39165H7.12503L7.28336 7.91665ZM4.75003 7.91665L4.90836 8.39165H5.38336L5.00336 8.70832L5.13003 9.18332L4.75003 8.89832L4.37003 9.18332L4.49669 8.70832L4.11669 8.39165H4.59169L4.75003 7.91665ZM2.21669 7.91665L2.37503 8.39165H2.85003L2.47003 8.70832L2.59669 9.18332L2.21669 8.89832L1.83669 9.18332L1.96336 8.70832L1.58336 8.39165H2.05836L2.21669 7.91665ZM3.10336 3.48332L3.48336 3.19832L3.86336 3.48332L3.70503 3.00832L4.08503 2.69165H3.61003L3.48336 2.21665L3.32503 2.69165H2.88169L3.26169 2.97665L3.10336 3.48332ZM0.570026 7.28332L0.950026 6.99832L1.33003 7.28332L1.17169 6.80832L1.55169 6.49165H1.10836L0.950026 6.01665L0.791693 6.49165H0.475026C0.475026 6.52332 0.443359 6.55498 0.443359 6.58665L0.696693 6.77665L0.570026 7.28332Z" fill="white"/>
</svg>
