<svg width="81" height="63" viewBox="0 0 81 63" fill="none" xmlns="http://www.w3.org/2000/svg">
<path d="M60.3972 61.971H60.8934V62.5886H46.9816V61.971H47.5385C48.4025 61.971 49.0505 61.6934 49.4825 61.1374C49.9162 60.5796 50.1339 60.054 50.1339 59.5612C50.1339 59.0668 50.0512 58.5715 49.8875 58.0762L45.9286 47.5631H29.2359L25.0947 58.137C24.9302 58.6323 24.8484 59.1174 24.8484 59.5916C24.8484 60.0641 25.0644 60.5796 25.4964 61.1374C25.9284 61.6934 26.5772 61.971 27.4437 61.971H28.0006V62.5886H15.5739V61.971H16.1307C17.1609 61.971 18.1701 61.6419 19.1581 60.9821C20.1478 60.3231 20.9519 59.3545 21.5712 58.0762L35.5437 24.8122C37.0692 21.4735 37.832 19.3506 37.832 18.4436H38.3889L54.9567 58.0762C55.5322 59.3545 56.3152 60.3231 57.3057 60.9821C58.2954 61.6419 59.3257 61.971 60.3972 61.971ZM29.9784 45.7102H45.1895L37.7679 25.8652L29.9784 45.7102Z" fill="#025A4E"/>
<path d="M65.0937 43.1966H66.0758V43.8109H52.7615V43.2574H53.6828C54.3781 43.2574 54.9704 42.9823 55.4615 42.4305C55.9517 41.8795 56.1567 41.2763 56.0757 40.6215L53.3116 9.75713L40.4292 38.4109C39.2834 40.9067 38.5881 42.9933 38.3435 44.6715H37.7292L22.022 10.6178L19.3827 40.6215C19.3017 41.2763 19.5059 41.8795 19.997 42.4305C20.4872 42.9823 21.0601 43.2574 21.7148 43.2574H22.697V43.8109H10.7933V43.1966H11.7755C12.9204 43.1966 13.9118 42.849 14.7488 42.1538C15.5875 41.4585 16.0896 40.5186 16.2541 39.3323L20.8542 0H21.4685L38.5865 37.0001L55.3366 0H55.8901L60.6151 39.3323C60.8193 40.9683 61.6377 42.1133 63.0687 42.768C63.683 43.054 64.358 43.1966 65.0937 43.1966Z" fill="#232323"/>
<mask id="mask0_643_144" style="mask-type:luminance" maskUnits="userSpaceOnUse" x="0" y="17" width="15" height="40">
<path d="M0 17.0112H14.04V56.0482H0V17.0112Z" fill="white"/>
</mask>
<g mask="url(#mask0_643_144)">
<path d="M0.00836182 38.9403V34.0719C0.994706 34.0179 1.73889 33.8694 2.23924 33.6255C2.73958 33.3817 3.17242 32.9733 3.53777 32.3987C3.90311 31.8233 4.15286 31.1036 4.28871 30.2379C4.39586 29.589 4.45071 28.4601 4.45071 26.8502C4.45071 24.227 4.57221 22.3977 4.81521 21.3633C5.05905 20.3289 5.49864 19.4969 6.13399 18.8683C6.76933 18.2397 7.69577 17.7428 8.9133 17.3774C9.73764 17.1336 11.0362 17.0121 12.808 17.0121H13.883V21.8611C12.382 21.8611 11.4184 21.9455 10.9923 22.1142C10.5662 22.283 10.2523 22.5395 10.049 22.8846C9.84649 23.2297 9.74524 23.8211 9.74524 24.6598C9.74524 25.512 9.68364 27.1278 9.56214 29.508C9.49464 30.8462 9.31914 31.9321 9.0348 32.7632C8.75046 33.5951 8.38849 34.282 7.94974 34.822C7.51014 35.3636 6.83683 35.9247 5.93149 36.5061C6.72883 36.9659 7.38189 37.5034 7.88899 38.1185C8.39608 38.7344 8.78421 39.4811 9.05505 40.3603C9.32589 41.2395 9.50139 42.4157 9.58239 43.8897C9.67689 46.135 9.72414 47.5677 9.72414 48.1903C9.72414 49.0822 9.83299 49.7049 10.049 50.0567C10.265 50.4077 10.5932 50.6752 11.0328 50.8574C11.4724 51.0405 12.4225 51.1317 13.883 51.1317V56.0001H12.808C10.9822 56.0001 9.58239 55.8541 8.60871 55.5639C7.63502 55.2728 6.81405 54.7893 6.14411 54.1135C5.47502 53.4368 5.0253 52.6015 4.79496 51.6084C4.56546 50.6144 4.45071 49.0484 4.45071 46.9121C4.45071 44.4247 4.34186 42.8081 4.12586 42.0639C3.82802 40.9822 3.3783 40.2085 2.77671 39.7419C2.17511 39.2753 1.25205 39.0078 0.00836182 38.9403Z" fill="#232323"/>
</g>
<path d="M74.9537 8.00479H72.3001V5.3512H74.9537V8.00479Z" fill="#025A4E"/>
<path d="M74.3276 13.312H72.3001V11.2844H74.3276V13.312Z" fill="#025A4E"/>
<mask id="mask1_643_144" style="mask-type:luminance" maskUnits="userSpaceOnUse" x="62" y="5" width="13" height="34">
<path d="M62.424 5.83215H74.088V38.4431H62.424V5.83215Z" fill="white"/>
</mask>
<g mask="url(#mask1_643_144)">
<path d="M66.6073 10.0323V8.00475H68.6349V10.0323H66.6073ZM71.7652 19.511C71.2564 19.1212 70.8775 18.474 70.6286 17.5703C70.492 17.0599 70.411 16.082 70.384 14.6383H68.6349V11.9847H70.346C70.303 10.9621 70.2135 10.1647 70.0777 9.59353C69.8802 8.76244 69.5039 8.06128 68.9504 7.49091C68.3969 6.92053 67.7126 6.51637 66.8993 6.27844C66.085 6.04134 64.9156 5.92322 63.3893 5.92322H62.4915V9.97491C63.7681 9.97491 64.5908 10.0508 64.9578 10.2036C65.3248 10.3563 65.5796 10.574 65.7205 10.8558C65.8623 11.1384 65.9382 11.7037 65.95 12.5517C66.0057 15.2416 66.096 16.9822 66.2209 17.7737C66.4124 18.9262 66.7744 19.8755 67.306 20.6213C67.6899 21.1411 68.3007 21.6727 69.1369 22.2152C68.4931 22.5881 67.9641 23.0201 67.5515 23.512C67.1389 24.0039 66.809 24.603 66.5601 25.3092C66.3112 26.0154 66.1593 26.9562 66.1019 28.1316C66.0116 30.0764 65.9635 31.3927 65.9585 32.082C65.9526 32.7713 65.8623 33.2607 65.6868 33.5484C65.5113 33.837 65.2379 34.0572 64.865 34.2099C64.4912 34.3627 63.7006 34.4386 62.4915 34.4386V38.508H63.3893C64.87 38.508 65.9551 38.4059 66.6445 38.2026C67.673 37.8971 68.4526 37.482 68.985 36.9563C69.5157 36.4307 69.8802 35.7329 70.0777 34.8622C70.276 33.9922 70.3747 32.4608 70.3747 30.2679C70.3747 28.9348 70.4194 27.9966 70.5105 27.454C70.6345 26.7309 70.8463 26.1285 71.1459 25.6484C71.4454 25.1683 71.804 24.8257 72.2225 24.6224C72.6401 24.4191 73.2628 24.295 74.0872 24.2495V20.1809C73.0477 20.1244 72.2731 19.9008 71.7652 19.511Z" fill="#025A4E"/>
</g>
<mask id="mask2_643_144" style="mask-type:luminance" maskUnits="userSpaceOnUse" x="77" y="0" width="4" height="4">
<path d="M77.976 0.648193H80.0727V3.02419H77.976V0.648193Z" fill="white"/>
</mask>
<g mask="url(#mask2_643_144)">
<path d="M80.1276 2.85126H78.1V0.82373H80.1276V2.85126Z" fill="#025A4E"/>
</g>
<path d="M69.9621 5.35124H66.177V1.56702H69.9621V5.35124Z" fill="#025A4E"/>
</svg>
