<svg width="81" height="63" viewBox="0 0 81 63" fill="none" xmlns="http://www.w3.org/2000/svg">
<path d="M60.3972 61.971H60.8934V62.5886H46.9816V61.971H47.5385C48.4025 61.971 49.0505 61.6934 49.4825 61.1374C49.9162 60.5796 50.1339 60.054 50.1339 59.5612C50.1339 59.0668 50.0512 58.5715 49.8875 58.0762L45.9286 47.5631H29.2359L25.0947 58.137C24.9302 58.6323 24.8484 59.1174 24.8484 59.5916C24.8484 60.0641 25.0644 60.5796 25.4964 61.1374C25.9284 61.6934 26.5772 61.971 27.4437 61.971H28.0006V62.5886H15.5739V61.971H16.1307C17.161 61.971 18.1701 61.6419 19.1581 60.9821C20.1478 60.3231 20.9519 59.3545 21.5712 58.0762L35.5437 24.8122C37.0692 21.4735 37.832 19.3506 37.832 18.4436H38.3889L54.9567 58.0762C55.5322 59.3545 56.3152 60.3231 57.3057 60.9821C58.2955 61.6419 59.3257 61.971 60.3972 61.971ZM29.9784 45.7102H45.1895L37.7679 25.8652L29.9784 45.7102Z" fill="#00ADB5"/>
<path d="M65.0937 43.1966H66.0758V43.8109H52.7615V43.2574H53.6828C54.3781 43.2574 54.9704 42.9823 55.4615 42.4305C55.9517 41.8795 56.1567 41.2763 56.0757 40.6215L53.3116 9.75713L40.4292 38.4109C39.2834 40.9067 38.5882 42.9933 38.3435 44.6715H37.7292L22.022 10.6178L19.3827 40.6215C19.3017 41.2763 19.5059 41.8795 19.997 42.4305C20.4872 42.9823 21.0601 43.2574 21.7148 43.2574H22.697V43.8109H10.7934V43.1966H11.7755C12.9204 43.1966 13.9119 42.849 14.7489 42.1538C15.5875 41.4585 16.0896 40.5186 16.2541 39.3323L20.8542 0H21.4685L38.5865 37.0001L55.3366 0H55.8901L60.6151 39.3323C60.8193 40.9683 61.6377 42.1133 63.0687 42.768C63.683 43.054 64.358 43.1966 65.0937 43.1966Z" fill="#1E1E1E"/>
<mask id="mask0_554_186" style="mask-type:luminance" maskUnits="userSpaceOnUse" x="0" y="17" width="15" height="40">
<path d="M0 17.0112H14.04V56.0482H0V17.0112Z" fill="white"/>
</mask>
<g mask="url(#mask0_554_186)">
<path d="M0.0083313 38.9403V34.0719C0.994675 34.0179 1.73886 33.8694 2.23921 33.6255C2.73955 33.3817 3.17239 32.9733 3.53774 32.3987C3.90308 31.8233 4.15283 31.1036 4.28868 30.2379C4.39583 29.589 4.45068 28.4601 4.45068 26.8502C4.45068 24.227 4.57218 22.3977 4.81518 21.3633C5.05902 20.3289 5.49861 19.4969 6.13396 18.8683C6.7693 18.2397 7.69574 17.7428 8.91327 17.3774C9.73761 17.1336 11.0361 17.0121 12.808 17.0121H13.883V21.8611C12.3819 21.8611 11.4184 21.9455 10.9923 22.1142C10.5662 22.283 10.2523 22.5395 10.049 22.8846C9.84646 23.2297 9.74521 23.8211 9.74521 24.6598C9.74521 25.512 9.68361 27.1278 9.56211 29.508C9.49461 30.8462 9.31911 31.9321 9.03477 32.7632C8.75043 33.5951 8.38846 34.282 7.94971 34.822C7.51011 35.3636 6.8368 35.9247 5.93146 36.5061C6.7288 36.9659 7.38186 37.5034 7.88896 38.1185C8.39605 38.7344 8.78418 39.4811 9.05502 40.3603C9.32586 41.2395 9.50136 42.4157 9.58236 43.8897C9.67686 46.135 9.72411 47.5677 9.72411 48.1903C9.72411 49.0822 9.83296 49.7049 10.049 50.0567C10.265 50.4077 10.5932 50.6752 11.0328 50.8574C11.4724 51.0405 12.4224 51.1317 13.883 51.1317V56.0001H12.808C10.9821 56.0001 9.58236 55.8541 8.60868 55.5639C7.63499 55.2728 6.81402 54.7893 6.14408 54.1135C5.47499 53.4368 5.02527 52.6015 4.79493 51.6084C4.56543 50.6144 4.45068 49.0484 4.45068 46.9121C4.45068 44.4247 4.34183 42.8081 4.12583 42.0639C3.82799 40.9822 3.37827 40.2085 2.77668 39.7419C2.17508 39.2753 1.25202 39.0078 0.0083313 38.9403Z" fill="#1E1E1E"/>
</g>
<path d="M74.9537 8.00479H72.3001V5.3512H74.9537V8.00479Z" fill="#00ADB5"/>
<path d="M74.3276 13.312H72.3001V11.2845H74.3276V13.312Z" fill="#00ADB5"/>
<mask id="mask1_554_186" style="mask-type:luminance" maskUnits="userSpaceOnUse" x="62" y="5" width="13" height="34">
<path d="M62.424 5.83215H74.088V38.4431H62.424V5.83215Z" fill="white"/>
</mask>
<g mask="url(#mask1_554_186)">
<path d="M66.6073 10.0323V8.00481H68.6348V10.0323H66.6073ZM71.7652 19.511C71.2564 19.1212 70.8775 18.4741 70.6286 17.5704C70.4919 17.0599 70.4109 16.082 70.3839 14.6384H68.6348V11.9848H70.346C70.3029 10.9622 70.2135 10.1648 70.0777 9.59359C69.8802 8.7625 69.5039 8.06134 68.9504 7.49097C68.3969 6.92059 67.7126 6.51644 66.8993 6.2785C66.085 6.0414 64.9156 5.92328 63.3893 5.92328H62.4915V9.97497C63.7681 9.97497 64.5908 10.0509 64.9578 10.2036C65.3248 10.3563 65.5796 10.574 65.7205 10.8558C65.8623 11.1385 65.9382 11.7038 65.95 12.5518C66.0057 15.2417 66.096 16.9823 66.2209 17.7737C66.4124 18.9263 66.7744 19.8755 67.3059 20.6214C67.6898 21.1412 68.3007 21.6727 69.1369 22.2152C68.4931 22.5882 67.9641 23.0202 67.5515 23.5121C67.1389 24.004 66.809 24.6031 66.5601 25.3093C66.3112 26.0155 66.1593 26.9563 66.1019 28.1316C66.0116 30.0765 65.9635 31.3927 65.9585 32.0821C65.9526 32.7714 65.8623 33.2608 65.6868 33.5485C65.5113 33.8371 65.2379 34.0573 64.865 34.21C64.4912 34.3627 63.7006 34.4387 62.4915 34.4387V38.5081H63.3893C64.87 38.5081 65.9551 38.406 66.6444 38.2026C67.673 37.8972 68.4526 37.4821 68.985 36.9564C69.5157 36.4307 69.8802 35.733 70.0777 34.8622C70.2759 33.9923 70.3747 32.4609 70.3747 30.268C70.3747 28.9349 70.4194 27.9966 70.5105 27.4541C70.6345 26.731 70.8463 26.1286 71.1458 25.6485C71.4454 25.1684 71.804 24.8258 72.2225 24.6225C72.6401 24.4191 73.2628 24.2951 74.0872 24.2495V20.181C73.0477 20.1244 72.2731 19.9008 71.7652 19.511Z" fill="#00ADB5"/>
</g>
<mask id="mask2_554_186" style="mask-type:luminance" maskUnits="userSpaceOnUse" x="77" y="0" width="4" height="4">
<path d="M77.976 0.648132H80.0727V3.02413H77.976V0.648132Z" fill="white"/>
</mask>
<g mask="url(#mask2_554_186)">
<path d="M80.1276 2.85114H78.1V0.823608H80.1276V2.85114Z" fill="#00ADB5"/>
</g>
<path d="M69.9621 5.35124H66.177V1.56702H69.9621V5.35124Z" fill="#00ADB5"/>
</svg>
