<svg width="19" height="20" viewBox="0 0 19 20" fill="none" xmlns="http://www.w3.org/2000/svg">
<path d="M0 9.81017C0 11.6816 0.539232 13.4262 1.4591 14.8853H17.5409C18.4608 13.4262 19 11.6816 19 9.81017C19 7.93872 18.4608 6.19414 17.5409 4.73505H1.4591C0.539232 6.19414 0 7.93872 0 9.81017Z" fill="#FFCE31"/>
<path d="M17.5726 4.73505C15.8915 2.07061 12.9099 0.294312 9.51587 0.294312C6.12188 0.294312 3.14024 2.07061 1.45911 4.73505H17.5726ZM1.45911 14.8853C3.14024 17.5497 6.12188 19.326 9.51587 19.326C12.9099 19.326 15.8915 17.5497 17.5726 14.8853H1.45911Z" fill="#ED4C5C"/>
<path d="M2.28381 8.76343H3.29884V9.33438H2.28381V8.76343ZM2.28381 12.9504H3.33056V13.4896H2.28381V12.9504Z" fill="#C8B100"/>
<path d="M2.18863 12.0623C2.09347 12.1258 2.03003 12.1892 2.03003 12.2209C2.03003 12.2526 2.06175 12.2844 2.12519 12.3161C2.18863 12.3478 2.25207 12.4112 2.22035 12.4747C2.28379 12.4112 2.31551 12.3478 2.31551 12.2844C2.31551 12.1892 2.25207 12.094 2.18863 12.0623Z" fill="#ED4C5C"/>
<path d="M2.44238 9.33441H3.17193V12.9504H2.44238V9.33441Z" fill="white"/>
<path d="M3.93327 10.6666C3.77467 10.6031 3.48919 10.5397 3.172 10.5397C3.07684 10.5397 2.94996 10.5397 2.82308 10.5714C2.37901 10.6348 2.03009 10.8251 2.06181 10.952L1.90322 10.6031C1.8715 10.4445 2.25213 10.2542 2.72792 10.159C2.88652 10.1273 3.04512 10.1273 3.172 10.1273C3.48919 10.1273 3.77467 10.159 3.93327 10.2225V10.6666Z" fill="#ED4C5C"/>
<path d="M2.44242 11.1424C2.2521 11.1424 2.09351 11.0789 2.09351 10.9838C2.09351 10.9203 2.15694 10.8252 2.28382 10.7617H2.47414L2.44242 11.1424ZM3.17197 10.8569C3.29885 10.8886 3.39401 10.9203 3.45745 10.952C3.48917 10.9838 3.36229 11.1106 3.17197 11.2058V10.8569Z" fill="#ED4C5C"/>
<path d="M1.96664 11.8402C1.93493 11.7768 2.15696 11.6499 2.44244 11.5548C2.56932 11.523 2.66447 11.4596 2.82307 11.3962C3.20371 11.2376 3.5209 11.0155 3.45746 10.9521L3.5209 11.3327C3.55262 11.3962 3.29887 11.5865 2.91823 11.7768C2.79135 11.8402 2.56932 11.9354 2.44244 11.9671C2.2204 12.0306 2.03008 12.1574 2.03008 12.1891L1.96664 11.8402Z" fill="#ED4C5C"/>
<path d="M9.1035 8.76343H10.1185V9.33438H9.1035V8.76343ZM9.07178 12.9504H10.1185V13.4896H9.07178V12.9504Z" fill="#C8B100"/>
<path d="M10.2137 12.0623C10.3088 12.1258 10.3723 12.1892 10.3723 12.2209C10.3723 12.2526 10.3405 12.2844 10.2771 12.3161C10.2137 12.3795 10.1502 12.4747 10.182 12.5064C10.1185 12.443 10.0868 12.3795 10.0868 12.3161C10.0868 12.1892 10.1502 12.094 10.2137 12.0623Z" fill="#ED4C5C"/>
<path d="M9.23047 9.33441H9.96002V12.9504H9.23047V9.33441Z" fill="white"/>
<path d="M8.46912 10.6666C8.62771 10.6031 8.91319 10.5397 9.23038 10.5397C9.32554 10.5397 9.45242 10.5397 9.5793 10.5714C10.0234 10.6348 10.3723 10.8251 10.3406 10.952L10.4992 10.5714C10.5309 10.4128 10.1503 10.2225 9.67446 10.1273H9.23038C8.91319 10.1273 8.62771 10.159 8.46912 10.2225V10.6666Z" fill="#ED4C5C"/>
<path d="M9.95995 11.1424C10.1503 11.1424 10.3089 11.0789 10.3089 10.9838C10.3089 10.9203 10.2454 10.8252 10.1185 10.7617H9.92823L9.95995 11.1424ZM9.2304 10.8569C9.10352 10.8886 9.00836 10.9203 8.94492 10.952C8.9132 10.9838 9.04008 11.1106 9.2304 11.2058V10.8569Z" fill="#ED4C5C"/>
<path d="M10.4357 11.8402C10.4674 11.7768 10.2454 11.6499 9.95992 11.5548C9.83304 11.523 9.73788 11.4596 9.57929 11.3962C9.19865 11.2376 8.88146 11.0155 8.9449 10.9521L8.88146 11.3327C8.84974 11.3962 9.10349 11.5865 9.48413 11.7768C9.611 11.8402 9.83304 11.9354 9.95992 11.9671C10.182 12.0306 10.3723 12.1892 10.3406 12.2209L10.4357 11.8402ZM6.1853 6.7334C6.78797 6.7334 8.02503 6.86028 8.4691 7.30435C7.99331 8.44625 7.23204 7.97046 6.1853 7.97046C5.17027 7.97046 4.37728 8.44625 3.90149 7.30435C4.34556 6.86028 5.5509 6.7334 6.1853 6.7334Z" fill="#ED4C5C"/>
<path d="M7.7396 8.00215C7.35897 7.78011 6.78802 7.74839 6.18535 7.74839C5.58268 7.74839 5.01172 7.81183 4.63109 8.00215L4.75797 8.54138C5.10688 8.63654 5.6144 8.69998 6.18535 8.69998C6.7563 8.69998 7.23209 8.63654 7.61273 8.54138L7.7396 8.00215ZM8.27884 6.63821C8.15196 6.54305 7.8982 6.44789 7.67617 6.44789C7.58101 6.44789 7.48585 6.44789 7.39069 6.47961C7.39069 6.47961 7.20037 6.22585 6.7563 6.22585C6.5977 6.22585 6.47082 6.25757 6.34395 6.32101V6.28929C6.31223 6.22585 6.24879 6.16241 6.18535 6.16241C6.12191 6.16241 6.02675 6.25757 6.02675 6.32101V6.35273C5.89987 6.28929 5.77299 6.25757 5.6144 6.25757C5.17032 6.25757 4.98001 6.54305 4.98001 6.51133C4.88485 6.47961 4.78969 6.47961 4.69453 6.47961C3.23543 6.47961 3.96498 7.46292 3.96498 7.46292L4.12358 7.2726C3.77466 6.82852 4.09186 6.57477 4.72625 6.57477C4.82141 6.57477 4.88485 6.57477 4.94829 6.60649C4.72625 6.92368 5.1386 7.20916 5.1386 7.20916L5.23376 7.05056C5.01172 6.89196 4.98001 6.35273 5.6144 6.35273C5.77299 6.35273 5.89987 6.38445 6.02675 6.47961C6.02675 6.51133 5.99503 6.9554 5.96331 7.01884L6.21707 7.24088L6.47082 7.01884C6.4391 6.92368 6.40738 6.51133 6.40738 6.47961C6.50254 6.41617 6.66114 6.35273 6.81974 6.35273C7.48585 6.35273 7.48585 6.89196 7.20037 7.05056L7.29553 7.20916C7.29553 7.20916 7.64445 6.92368 7.48585 6.60649C7.54929 6.60649 7.64445 6.57477 7.70789 6.57477C8.46915 6.57477 8.50087 7.14572 8.31056 7.2726L8.43743 7.46292C8.374 7.46292 8.72291 7.01884 8.27884 6.63821Z" fill="#C8B100"/>
<path d="M5.995 6.03559C5.995 5.94043 6.09015 5.84528 6.18531 5.84528C6.31219 5.84528 6.37563 5.94043 6.37563 6.03559C6.37563 6.13075 6.28047 6.22591 6.18531 6.22591C6.09015 6.22591 5.995 6.13075 5.995 6.03559Z" fill="#005BBF"/>
<path d="M6.12187 5.49628V5.59144H6.02671V5.68659H6.12187V6.00379H5.995V6.09895H6.37563L6.40735 6.03551L6.37563 6.00379H6.24875V5.68659H6.34391V5.59144H6.24875V5.49628H6.12187Z" fill="#C8B100"/>
<path d="M6.18527 8.63653C5.67775 8.63653 5.23368 8.57309 4.88477 8.47793C5.23368 8.38278 5.67775 8.31934 6.18527 8.31934C6.69278 8.31934 7.13685 8.38278 7.48577 8.47793C7.16857 8.57309 6.69278 8.63653 6.18527 8.63653Z" fill="#ED4C5C"/>
<path d="M6.21703 14.1241C5.61436 14.1241 5.04341 13.9655 4.5359 13.7434C4.15526 13.5531 3.93323 13.2042 3.93323 12.7919V11.2693H8.50084V12.7919C8.50084 13.2042 8.24708 13.5848 7.89817 13.7434C7.39066 13.9972 6.81971 14.1241 6.21703 14.1241ZM6.18531 8.73175H8.46912V11.2693H6.18531V8.73175Z" fill="white"/>
<path d="M6.21703 12.7918C6.21703 13.3945 5.70952 13.8703 5.07513 13.8703C4.44074 13.8703 3.93323 13.3945 3.93323 12.7918V11.2693H6.21703V12.7918Z" fill="#ED4C5C"/>
<path d="M4.409 13.6799C4.47244 13.7117 4.5676 13.7751 4.69448 13.8068V11.2058H4.44072L4.409 13.6799ZM3.90149 12.7601C3.90149 13.0773 4.02837 13.331 4.15525 13.4579V11.2058H3.90149V12.7601Z" fill="#C8B100"/>
<path d="M4.9165 13.8703H5.17026V11.2058H4.9165V13.8703Z" fill="#C7B500"/>
<path d="M5.42407 13.8068C5.51923 13.7751 5.64611 13.7117 5.70955 13.6799V11.2058H5.45579L5.42407 13.8068Z" fill="#C8B100"/>
<path d="M3.90149 8.73175H6.1853V11.2693H3.90149V8.73175Z" fill="#ED4C5C"/>
<path d="M5.96326 13.4579C6.09013 13.3628 6.18529 13.1407 6.21701 12.887V11.2375H5.96326V13.4579Z" fill="#C8B100"/>
<path d="M8.50081 11.2692V12.7917C8.50081 13.3944 7.9933 13.8702 7.35891 13.8702C6.72452 13.8702 6.217 13.3944 6.217 12.7917V11.2692H8.50081ZM7.6761 9.17571C7.77126 9.36603 7.77126 9.84182 7.48579 9.74667C7.54922 9.77838 7.58094 10.0004 7.6761 10.1273C7.8347 10.3176 8.02502 10.159 7.9933 9.93698C7.92986 9.58807 7.96158 9.36603 8.02502 9.01712C8.02502 9.04884 8.18361 9.04884 8.24705 8.9854C8.21533 9.08056 8.18361 9.20743 8.24705 9.20743C8.18361 9.30259 8.02502 9.46119 7.9933 9.55635C7.96158 9.77839 8.31049 10.1907 7.92986 10.2859C7.6761 10.3493 7.8347 10.5397 7.92986 10.6348C7.92986 10.6348 7.80298 11.0472 7.86642 11.0154C7.61266 11.1106 7.6761 10.8886 7.6761 10.8886C7.80298 10.5079 7.45407 10.4762 7.48579 10.4128C7.16859 10.3811 7.5175 10.6983 7.23203 10.6983C7.16859 10.6983 7.04171 10.7617 7.04171 10.7617C6.6928 10.73 6.88311 10.4128 7.00999 10.4445C7.10515 10.4762 7.20031 10.6348 7.20031 10.4128C7.20031 10.4128 7.04171 10.159 7.45407 10.159C7.29547 10.159 7.20031 10.0321 7.13687 9.87354C7.07343 9.90526 6.97827 10.0639 6.62936 10.0956C6.62936 10.0956 6.5342 9.74667 6.62936 9.8101C6.75624 9.87354 6.81967 9.87354 6.94655 9.74667C6.88311 9.65151 6.50248 9.52463 6.56592 9.30259C6.56592 9.23915 6.75624 9.14399 6.75624 9.14399C6.72452 9.30259 6.81967 9.46119 7.00999 9.46119C7.26375 9.49291 7.16859 9.39775 7.20031 9.33431C7.23203 9.27087 7.42235 9.36603 7.35891 9.20743C7.35891 9.17571 7.13687 9.14399 7.20031 9.04884C7.32719 8.89024 7.5175 9.01712 7.6761 9.17571ZM6.217 13.8068L6.15356 13.6482L6.217 13.4579L6.28044 13.6482L6.217 13.8068Z" fill="#ED4C5C"/>
<path d="M4.59925 9.27091V9.4295H4.66269V9.55638H4.50409V9.87358H4.59925V10.5714H4.40894V10.9203H5.70944V10.5714H5.55084V9.87358H5.61428V9.55638H5.45568V9.4295H5.55084V9.27091H5.23364V9.4295H5.29708V9.55638H5.13849V9.17575H5.23364V9.01715H4.88473V9.17575H4.97989V9.55638H4.82129V9.4295H4.88473V9.27091H4.59925ZM8.18356 13.1724V11.5864H6.53414V13.1724L7.29541 13.5213H7.39057L8.18356 13.1724ZM7.29541 11.7133V12.2525L6.75618 11.7133H7.29541ZM6.6293 11.745L7.26369 12.3794L6.6293 13.0138V11.745ZM6.69274 13.1407L7.29541 12.538V13.4262L6.69274 13.1407ZM7.39057 13.3944V12.5063L7.99324 13.109L7.39057 13.3944ZM8.05668 13.0138L7.42229 12.3794L8.05668 11.745V13.0138ZM7.39057 11.7133H7.9298L7.39057 12.2525V11.7133Z" fill="#C8B100"/>
<path d="M5.45569 11.2375C5.45569 10.7618 5.77288 10.4128 6.18524 10.4128C6.59759 10.4128 6.91479 10.7935 6.91479 11.2375C6.91479 11.6816 6.59759 12.0623 6.18524 12.0623C5.77288 12.0623 5.45569 11.7133 5.45569 11.2375Z" fill="#ED4C5C"/>
<path d="M5.67773 11.2376C5.67773 10.8886 5.89977 10.6349 6.18525 10.6349C6.47072 10.6349 6.69276 10.9204 6.69276 11.2376C6.69276 11.5865 6.47072 11.8402 6.18525 11.8402C5.93149 11.872 5.67773 11.5865 5.67773 11.2376Z" fill="#005BBF"/>
<path d="M5.9633 10.8252L5.83643 11.1741L5.93158 11.2058L5.86815 11.3327H6.05846L5.99502 11.2058L6.09018 11.1741L5.9633 10.8252ZM6.4391 10.8252L6.31222 11.1741L6.40738 11.2058L6.34394 11.3327H6.53426L6.50254 11.2058L6.59769 11.1741L6.4391 10.8252ZM6.21706 11.2375L6.05846 11.5865L6.15362 11.6182L6.1219 11.7451H6.2805L6.24878 11.6182L6.34394 11.5865L6.21706 11.2375Z" fill="#C8B100"/>
</svg>
