<svg width="23" height="23" viewBox="0 0 23 23" fill="none" xmlns="http://www.w3.org/2000/svg">
<path d="M14.95 17.25C14.7226 17.25 14.5002 17.3174 14.3111 17.4438C14.122 17.5702 13.9746 17.7498 13.8875 17.9599C13.8005 18.17 13.7777 18.4013 13.8221 18.6244C13.8665 18.8474 13.976 19.0523 14.1368 19.2132C14.2977 19.374 14.5026 19.4835 14.7256 19.5279C14.9487 19.5723 15.18 19.5495 15.3901 19.4625C15.6002 19.3754 15.7798 19.228 15.9062 19.0389C16.0326 18.8498 16.1 18.6274 16.1 18.4C16.1 18.095 15.9788 17.8025 15.7632 17.5868C15.5475 17.3712 15.255 17.25 14.95 17.25ZM8.05 17.25H4.6C4.295 17.25 4.00249 17.3712 3.78683 17.5868C3.57116 17.8025 3.45 18.095 3.45 18.4C3.45 18.705 3.57116 18.9975 3.78683 19.2132C4.00249 19.4288 4.295 19.55 4.6 19.55H8.05C8.355 19.55 8.64751 19.4288 8.86317 19.2132C9.07884 18.9975 9.2 18.705 9.2 18.4C9.2 18.095 9.07884 17.8025 8.86317 17.5868C8.64751 17.3712 8.355 17.25 8.05 17.25ZM18.4 17.25C18.1726 17.25 17.9502 17.3174 17.7611 17.4438C17.572 17.5702 17.4246 17.7498 17.3375 17.9599C17.2505 18.17 17.2277 18.4013 17.2721 18.6244C17.3165 18.8474 17.426 19.0523 17.5868 19.2132C17.7477 19.374 17.9526 19.4835 18.1756 19.5279C18.3987 19.5723 18.6299 19.5495 18.8401 19.4625C19.0502 19.3754 19.2298 19.228 19.3562 19.0389C19.4826 18.8498 19.55 18.6274 19.55 18.4C19.55 18.095 19.4288 17.8025 19.2132 17.5868C18.9975 17.3712 18.705 17.25 18.4 17.25ZM14.95 10.35C14.7226 10.35 14.5002 10.4174 14.3111 10.5438C14.122 10.6702 13.9746 10.8498 13.8875 11.0599C13.8005 11.27 13.7777 11.5013 13.8221 11.7244C13.8665 11.9474 13.976 12.1523 14.1368 12.3132C14.2977 12.474 14.5026 12.5835 14.7256 12.6279C14.9487 12.6723 15.18 12.6495 15.3901 12.5625C15.6002 12.4754 15.7798 12.328 15.9062 12.1389C16.0326 11.9498 16.1 11.7274 16.1 11.5C16.1 11.195 15.9788 10.9025 15.7632 10.6868C15.5475 10.4712 15.255 10.35 14.95 10.35ZM8.05 10.35H4.6C4.295 10.35 4.00249 10.4712 3.78683 10.6868C3.57116 10.9025 3.45 11.195 3.45 11.5C3.45 11.805 3.57116 12.0975 3.78683 12.3132C4.00249 12.5288 4.295 12.65 4.6 12.65H8.05C8.355 12.65 8.64751 12.5288 8.86317 12.3132C9.07884 12.0975 9.2 11.805 9.2 11.5C9.2 11.195 9.07884 10.9025 8.86317 10.6868C8.64751 10.4712 8.355 10.35 8.05 10.35ZM18.4 3.45C18.1726 3.45 17.9502 3.51745 17.7611 3.64381C17.572 3.77017 17.4246 3.94978 17.3375 4.15991C17.2505 4.37005 17.2277 4.60128 17.2721 4.82435C17.3165 5.04743 17.426 5.25234 17.5868 5.41317C17.7477 5.574 17.9526 5.68353 18.1756 5.7279C18.3987 5.77228 18.6299 5.7495 18.8401 5.66246C19.0502 5.57542 19.2298 5.42802 19.3562 5.23891C19.4826 5.04979 19.55 4.82745 19.55 4.6C19.55 4.295 19.4288 4.00249 19.2132 3.78683C18.9975 3.57116 18.705 3.45 18.4 3.45ZM18.4 10.35C18.1726 10.35 17.9502 10.4174 17.7611 10.5438C17.572 10.6702 17.4246 10.8498 17.3375 11.0599C17.2505 11.27 17.2277 11.5013 17.2721 11.7244C17.3165 11.9474 17.426 12.1523 17.5868 12.3132C17.7477 12.474 17.9526 12.5835 18.1756 12.6279C18.3987 12.6723 18.6299 12.6495 18.8401 12.5625C19.0502 12.4754 19.2298 12.328 19.3562 12.1389C19.4826 11.9498 19.55 11.7274 19.55 11.5C19.55 11.195 19.4288 10.9025 19.2132 10.6868C18.9975 10.4712 18.705 10.35 18.4 10.35ZM23 3.45C23 2.535 22.6365 1.65748 21.9895 1.01048C21.3425 0.363481 20.465 0 19.55 0H3.45C2.535 0 1.65748 0.363481 1.01048 1.01048C0.363481 1.65748 0 2.535 0 3.45V5.75C0.0050722 6.60106 0.324542 7.42022 0.897 8.05C0.324542 8.67978 0.0050722 9.49894 0 10.35V12.65C0.0050722 13.5011 0.324542 14.3202 0.897 14.95C0.324542 15.5798 0.0050722 16.3989 0 17.25V19.55C0 20.465 0.363481 21.3425 1.01048 21.9895C1.65748 22.6365 2.535 23 3.45 23H19.55C20.465 23 21.3425 22.6365 21.9895 21.9895C22.6365 21.3425 23 20.465 23 19.55V17.25C22.9949 16.3989 22.6755 15.5798 22.103 14.95C22.6755 14.3202 22.9949 13.5011 23 12.65V10.35C22.9949 9.49894 22.6755 8.67978 22.103 8.05C22.6755 7.42022 22.9949 6.60106 23 5.75V3.45ZM20.7 19.55C20.7 19.855 20.5788 20.1475 20.3632 20.3632C20.1475 20.5788 19.855 20.7 19.55 20.7H3.45C3.145 20.7 2.85249 20.5788 2.63683 20.3632C2.42116 20.1475 2.3 19.855 2.3 19.55V17.25C2.3 16.945 2.42116 16.6525 2.63683 16.4368C2.85249 16.2212 3.145 16.1 3.45 16.1H19.55C19.855 16.1 20.1475 16.2212 20.3632 16.4368C20.5788 16.6525 20.7 16.945 20.7 17.25V19.55ZM20.7 12.65C20.7 12.955 20.5788 13.2475 20.3632 13.4632C20.1475 13.6788 19.855 13.8 19.55 13.8H3.45C3.145 13.8 2.85249 13.6788 2.63683 13.4632C2.42116 13.2475 2.3 12.955 2.3 12.65V10.35C2.3 10.045 2.42116 9.75249 2.63683 9.53683C2.85249 9.32116 3.145 9.2 3.45 9.2H19.55C19.855 9.2 20.1475 9.32116 20.3632 9.53683C20.5788 9.75249 20.7 10.045 20.7 10.35V12.65ZM20.7 5.75C20.7 6.055 20.5788 6.34751 20.3632 6.56317C20.1475 6.77884 19.855 6.9 19.55 6.9H3.45C3.145 6.9 2.85249 6.77884 2.63683 6.56317C2.42116 6.34751 2.3 6.055 2.3 5.75V3.45C2.3 3.145 2.42116 2.85249 2.63683 2.63683C2.85249 2.42116 3.145 2.3 3.45 2.3H19.55C19.855 2.3 20.1475 2.42116 20.3632 2.63683C20.5788 2.85249 20.7 3.145 20.7 3.45V5.75ZM14.95 3.45C14.7226 3.45 14.5002 3.51745 14.3111 3.64381C14.122 3.77017 13.9746 3.94978 13.8875 4.15991C13.8005 4.37005 13.7777 4.60128 13.8221 4.82435C13.8665 5.04743 13.976 5.25234 14.1368 5.41317C14.2977 5.574 14.5026 5.68353 14.7256 5.7279C14.9487 5.77228 15.18 5.7495 15.3901 5.66246C15.6002 5.57542 15.7798 5.42802 15.9062 5.23891C16.0326 5.04979 16.1 4.82745 16.1 4.6C16.1 4.295 15.9788 4.00249 15.7632 3.78683C15.5475 3.57116 15.255 3.45 14.95 3.45ZM8.05 3.45H4.6C4.295 3.45 4.00249 3.57116 3.78683 3.78683C3.57116 4.00249 3.45 4.295 3.45 4.6C3.45 4.905 3.57116 5.19751 3.78683 5.41317C4.00249 5.62884 4.295 5.75 4.6 5.75H8.05C8.355 5.75 8.64751 5.62884 8.86317 5.41317C9.07884 5.19751 9.2 4.905 9.2 4.6C9.2 4.295 9.07884 4.00249 8.86317 3.78683C8.64751 3.57116 8.355 3.45 8.05 3.45Z" fill="white"/>
</svg>
