<svg width="27" height="23" viewBox="0 0 27 23" fill="none" xmlns="http://www.w3.org/2000/svg">
<path d="M25.1904 0H1.80957C0.804255 0 0 0.81519 0 1.83418V17.0608C0 18.0797 0.804255 18.8949 1.80957 18.8949H10.7713V21.8354H9.59362C9.27766 21.8354 9.01915 22.0975 9.01915 22.4177C9.01915 22.738 9.27766 23 9.59362 23H17.9521C18.2681 23 18.5266 22.738 18.5266 22.4177C18.5266 22.0975 18.2681 21.8354 17.9521 21.8354H16.516V18.8949H25.1904C26.1957 18.8949 27 18.0797 27 17.0608V1.83418C27 0.81519 26.1957 0 25.1904 0ZM1.80957 1.16456H25.1904C25.5638 1.16456 25.8511 1.4557 25.8511 1.83418V13.9165H1.14894V1.83418C1.14894 1.4557 1.43617 1.16456 1.80957 1.16456ZM15.3383 21.8354H11.9202V18.8949H15.3383V21.8354ZM25.1904 17.7304H1.80957C1.43617 17.7304 1.14894 17.4392 1.14894 17.0608V15.081H25.8511V17.0608C25.8511 17.4392 25.5638 17.7304 25.1904 17.7304Z" fill="black"/>
</svg>
