<svg width="16" height="23" viewBox="0 0 16 23" fill="none" xmlns="http://www.w3.org/2000/svg">
<path d="M13.4267 0H2.57331C1.85352 0.0436221 1.17986 0.372018 0.69867 0.913851C0.217478 1.45568 -0.0323803 2.16719 0.00336956 2.89381V20.1062C-0.0323803 20.8328 0.217478 21.5443 0.69867 22.0861C1.17986 22.628 1.85352 22.9564 2.57331 23H13.4267C14.1465 22.9564 14.8201 22.628 15.3013 22.0861C15.7825 21.5443 16.0324 20.8328 15.9966 20.1062V2.89381C16.0324 2.16719 15.7825 1.45568 15.3013 0.913851C14.8201 0.372018 14.1465 0.0436221 13.4267 0ZM14.8493 20.1062C14.8844 20.5258 14.755 20.9426 14.4891 21.2671C14.2232 21.5917 13.8418 21.7982 13.4267 21.8425H2.57331C2.15823 21.7982 1.77684 21.5917 1.51091 21.2671C1.24497 20.9426 1.11565 20.5258 1.15066 20.1062V2.89381C1.11565 2.47419 1.24497 2.05742 1.51091 1.73285C1.77684 1.40829 2.15823 1.20175 2.57331 1.15752H4.32866V1.74786C4.32866 2.05486 4.44954 2.34928 4.6647 2.56635C4.87986 2.78343 5.17168 2.90538 5.47596 2.90538H10.524C10.8283 2.90538 11.1201 2.78343 11.3353 2.56635C11.5505 2.34928 11.6713 2.05486 11.6713 1.74786V1.15752H13.4267C13.8418 1.20175 14.2232 1.40829 14.4891 1.73285C14.755 2.05742 14.8844 2.47419 14.8493 2.89381V20.1062Z" fill="white"/>
<path d="M5.70542 19.5263H10.2946C10.4467 19.5263 10.5926 19.4653 10.7002 19.3568C10.8078 19.2482 10.8682 19.101 10.8682 18.9475C10.8682 18.794 10.8078 18.6468 10.7002 18.5383C10.5926 18.4298 10.4467 18.3688 10.2946 18.3688H5.70542C5.55328 18.3688 5.40737 18.4298 5.29979 18.5383C5.19221 18.6468 5.13177 18.794 5.13177 18.9475C5.13177 19.101 5.19221 19.2482 5.29979 19.3568C5.40737 19.4653 5.55328 19.5263 5.70542 19.5263Z" fill="white"/>
</svg>
