<svg width="23" height="23" viewBox="0 0 23 23" fill="none" xmlns="http://www.w3.org/2000/svg">
<path d="M8.30596 4.65163e-05C6.72905 -0.00530098 5.18523 0.450521 3.86579 1.31103L9.12821 6.55497C9.30347 6.70398 9.44703 6.88643 9.55044 7.09157C9.65386 7.29672 9.71503 7.52041 9.73035 7.74948C9.74568 7.97854 9.71485 8.20835 9.63968 8.42536C9.56451 8.64236 9.44652 8.84219 9.29266 9.01306C9.12118 9.16638 8.92065 9.28396 8.70288 9.35886C8.48511 9.43377 8.25449 9.46449 8.02462 9.44922C7.79475 9.43395 7.57026 9.37299 7.3644 9.26994C7.15853 9.16689 6.97543 9.02383 6.8259 8.84919L1.39903 3.60525C0.460749 4.98108 -0.0275083 6.61242 0.00119686 8.27563C0.00985796 10.4678 0.887602 12.5677 2.44317 14.1178C3.99874 15.6679 6.10606 16.5426 8.30596 16.5512C9.0259 16.5551 9.74369 16.4726 10.4438 16.3054L15.9529 21.7952C16.7271 22.5666 17.7771 23 18.8719 23C19.9667 23 21.0167 22.5666 21.7909 21.7952C22.5651 21.0237 23 19.9774 23 18.8864C23 17.7954 22.5651 16.7491 21.7909 15.9777L16.2818 10.4879C16.4496 9.79025 16.5324 9.07498 16.5285 8.35757C16.5504 7.26785 16.3538 6.18474 15.9504 5.17165C15.547 4.15856 14.9448 3.23585 14.1791 2.45756C13.4134 1.67926 12.4995 1.06103 11.491 0.639048C10.4826 0.217069 9.39973 -0.000171493 8.30596 4.65163e-05ZM14.884 8.27563C14.8828 8.85785 14.7997 9.43703 14.6373 9.9963L14.3906 10.8976L15.0484 11.5531L20.5575 17.0428C20.7921 17.2642 20.9788 17.531 21.1061 17.8269C21.2334 18.1228 21.2985 18.4416 21.2976 18.7635C21.3068 19.0866 21.2454 19.4079 21.1176 19.705C20.9898 20.0021 20.7987 20.268 20.5575 20.4842C20.3348 20.7172 20.0669 20.9027 19.7701 21.0295C19.4733 21.1562 19.1537 21.2216 18.8308 21.2216C18.5079 21.2216 18.1883 21.1562 17.8915 21.0295C17.5947 20.9027 17.3268 20.7172 17.1041 20.4842L11.595 14.9944L10.9372 14.3389L10.0327 14.5847C9.47145 14.7466 8.89023 14.8294 8.30596 14.8306C6.55873 14.8257 4.88041 14.1509 3.61911 12.946C2.98125 12.3479 2.47612 11.6234 2.13624 10.819C1.79636 10.0146 1.62927 9.14825 1.6457 8.27563C1.64684 7.66649 1.7298 7.06024 1.89238 6.47303L5.51029 10.0782C5.816 10.4097 6.18488 10.6773 6.59541 10.8653C7.00595 11.0533 7.44993 11.1579 7.90148 11.1732C8.35303 11.1884 8.80311 11.114 9.22547 10.9541C9.64784 10.7943 10.0341 10.5522 10.3616 10.2421C10.6728 9.91573 10.9157 9.53087 11.0761 9.10999C11.2365 8.6891 11.3113 8.24061 11.296 7.79064C11.2806 7.34068 11.1756 6.89826 10.987 6.48916C10.7983 6.08007 10.5298 5.71249 10.1971 5.40786L6.57922 1.80265C7.11101 1.63505 7.666 1.5521 8.22373 1.55684C9.97096 1.56168 11.6493 2.23651 12.9106 3.44138C14.173 4.73653 14.8807 6.47008 14.884 8.27563Z" fill="white"/>
</svg>
