<svg width="16" height="16" viewBox="0 0 16 16" fill="none" xmlns="http://www.w3.org/2000/svg">
<path d="M1.81818 0C1.33703 0.00342742 0.876556 0.196086 0.536321 0.536321C0.196086 0.876556 0.00342742 1.33703 0 1.81818V14.1818C0 15.176 0.824 16 1.81818 16H14.1818C15.176 16 16 15.176 16 14.1818V1.81818C16 0.824 15.176 0 14.1818 0H1.81818ZM1.81818 1.45455H14.1818C14.3891 1.45455 14.5455 1.61091 14.5455 1.81818V14.1818C14.5464 14.2298 14.5377 14.2776 14.5198 14.3221C14.5019 14.3667 14.4751 14.4072 14.4412 14.4412C14.4072 14.4751 14.3667 14.5019 14.3221 14.5198C14.2776 14.5377 14.2298 14.5464 14.1818 14.5455H1.81818C1.77013 14.5465 1.72235 14.5379 1.67774 14.52C1.63313 14.5021 1.5926 14.4754 1.55862 14.4414C1.52463 14.4074 1.49788 14.3669 1.48 14.3223C1.46211 14.2776 1.45345 14.2299 1.45455 14.1818V1.81818C1.45455 1.61091 1.61091 1.45455 1.81818 1.45455Z" fill="white"/>
<path d="M11.8891 4.04681L11.1533 4.6216L8.0207 6.94952L4.88808 4.59861L4.15234 4.02382C3.97902 3.88043 3.76743 3.79105 3.5438 3.76674C3.32017 3.74243 3.09432 3.78427 2.89424 3.88707C2.69415 3.98986 2.52862 4.1491 2.41816 4.34506C2.30769 4.54101 2.25714 4.76507 2.27277 4.98947V11.6513C2.27277 11.8587 2.35513 12.0575 2.50173 12.2041C2.64833 12.3507 2.84716 12.433 3.05449 12.433H4.88808V7.99564L8.0207 10.3465L11.1533 7.99564V12.433H12.9869C13.1942 12.433 13.3931 12.3507 13.5397 12.2041C13.6863 12.0575 13.7686 11.8587 13.7686 11.6513V4.98947C13.7794 4.767 13.7254 4.54619 13.613 4.35388C13.5007 4.16156 13.3349 4.00603 13.1358 3.90618C12.9367 3.80633 12.7129 3.76646 12.4915 3.79143C12.2702 3.81639 12.0609 3.90512 11.8891 4.04681Z" fill="white"/>
</svg>
