<svg width="16" height="16" viewBox="0 0 16 16" fill="none" xmlns="http://www.w3.org/2000/svg">
<path d="M1.81818 0C1.33703 0.00342742 0.876556 0.196086 0.536321 0.536321C0.196086 0.876556 0.00342742 1.33703 0 1.81818V14.1818C0 15.176 0.824 16 1.81818 16H14.1818C15.176 16 16 15.176 16 14.1818V1.81818C16 0.824 15.176 0 14.1818 0H1.81818ZM1.81818 1.45455H14.1818C14.3891 1.45455 14.5455 1.61091 14.5455 1.81818V14.1818C14.5464 14.2298 14.5377 14.2776 14.5198 14.3221C14.5019 14.3667 14.4751 14.4072 14.4412 14.4412C14.4072 14.4751 14.3667 14.5019 14.3221 14.5198C14.2776 14.5377 14.2298 14.5464 14.1818 14.5455H1.81818C1.77013 14.5465 1.72235 14.5379 1.67774 14.52C1.63313 14.5021 1.5926 14.4754 1.55862 14.4414C1.52463 14.4074 1.49788 14.3669 1.48 14.3223C1.46211 14.2776 1.45345 14.2299 1.45455 14.1818V1.81818C1.45455 1.61091 1.61091 1.45455 1.81818 1.45455ZM3.95491 2.70473C3.78824 2.70071 3.62246 2.73006 3.46731 2.79106C3.31215 2.85206 3.17077 2.94348 3.05147 3.05994C2.93217 3.17639 2.83737 3.31553 2.77265 3.46917C2.70792 3.6228 2.67458 3.78783 2.67458 3.95455C2.67458 4.12126 2.70792 4.28629 2.77265 4.43993C2.83737 4.59356 2.93217 4.7327 3.05147 4.84915C3.17077 4.96561 3.31215 5.05703 3.46731 5.11803C3.62246 5.17903 3.78824 5.20838 3.95491 5.20436C4.28116 5.19649 4.5914 5.06136 4.81937 4.82783C5.04733 4.5943 5.17494 4.28089 5.17494 3.95455C5.17494 3.6282 5.04733 3.31479 4.81937 3.08126C4.5914 2.84773 4.28116 2.7126 3.95491 2.70473ZM10.5222 6.02255C9.48 6.02255 8.78691 6.59345 8.50036 7.136H8.45455V6.18182H6.40873V13.0909H8.54545V9.68146C8.54545 8.78109 8.72436 7.90909 9.84073 7.90909C10.9404 7.90909 10.9549 8.92582 10.9549 9.72727V13.0909H13.0909V9.29527C13.0909 7.43782 12.6953 6.02255 10.5222 6.02255ZM2.90909 6.18182V13.0909H5.06836V6.18182H2.90909Z" fill="white"/>
</svg>
