<svg width="50" height="57" viewBox="0 0 50 57" fill="none" xmlns="http://www.w3.org/2000/svg">
<g clip-path="url(#clip0_619_339)">
<path fill-rule="evenodd" clip-rule="evenodd" d="M29.8 6.43817L41.352 13.1079C41.6772 12.7633 42.0572 12.4591 42.4882 12.2088C44.8841 10.8315 47.9399 11.6493 49.3315 14.0451C50.7087 16.4409 49.891 19.4967 47.4951 20.8883C47.0674 21.1342 46.6181 21.3101 46.1609 21.4196V34.7643C46.6132 34.874 47.0575 35.0488 47.4808 35.2921C49.891 36.6837 50.7087 39.7395 49.3171 42.1353C47.9399 44.5311 44.8697 45.3489 42.4739 43.9716C41.9969 43.6974 41.5825 43.3561 41.2354 42.9664L29.7539 49.5955C29.9181 50.0914 30.0069 50.6219 30.0069 51.1735C30.0069 53.928 27.7688 56.1804 25 56.1804C22.2312 56.1804 19.9931 53.9424 19.9931 51.1735C19.9931 50.6813 20.0638 50.2059 20.1957 49.7569L8.64678 43.089C8.32497 43.4267 7.95027 43.7253 7.52612 43.9716C5.11593 45.3489 2.06015 44.5311 0.682897 42.1353C-0.694355 39.7395 0.123388 36.6837 2.51923 35.2921C2.94284 35.0486 3.38708 34.8737 3.8391 34.764V21.4196C3.38185 21.3101 2.93262 21.1342 2.50489 20.8883C0.109042 19.5111 -0.708701 16.4409 0.668551 14.0451C2.0458 11.6493 5.11593 10.8315 7.51177 12.2088C7.94046 12.4578 8.31862 12.76 8.64272 13.1023L20.1978 6.43075C20.0646 5.97958 19.9931 5.50171 19.9931 5.00688C19.9931 2.23803 22.2312 0 25 0C27.7688 0 30.0069 2.23803 30.0069 5.00688C30.0069 5.50442 29.9346 5.98482 29.8 6.43817ZM28.5964 8.49314L40.1759 15.1787C39.818 16.4359 39.9493 17.8298 40.6519 19.052C41.3568 20.2782 42.505 21.091 43.7794 21.4077V34.7691C43.7145 34.7851 43.6498 34.8023 43.5856 34.8208L28.462 8.62668C28.5076 8.58302 28.5524 8.53849 28.5964 8.49314ZM21.5412 8.62971L6.41784 34.8234C6.35245 34.8044 6.28669 34.7867 6.2206 34.7704V21.4077C7.49496 21.091 8.64324 20.2782 9.34811 19.052C10.0521 17.8274 10.1826 16.4304 9.82198 15.1713L21.3982 8.48757C21.4449 8.5359 21.4926 8.58329 21.5412 8.62971ZM26.399 9.81636L41.5189 36.0041C41.1805 36.3267 40.8823 36.7026 40.6375 37.1284C40.3942 37.5517 40.2194 37.996 40.1097 38.4483H9.89054C9.78086 37.9963 9.60596 37.552 9.36245 37.1284C9.11673 36.7054 8.81913 36.3315 8.48243 36.0103L23.6052 9.81758C24.0478 9.94533 24.5158 10.0138 25 10.0138C25.4857 10.0138 25.9551 9.94489 26.399 9.81636ZM28.7028 47.8004L40.2071 41.1582C40.1725 41.0498 40.1417 40.9403 40.1146 40.8298H9.88413C9.8681 40.8947 9.85078 40.9593 9.83218 41.0235L21.3929 47.6983C22.3032 46.7536 23.582 46.1666 25 46.1666C26.4684 46.1666 27.7876 46.7961 28.7028 47.8004Z" fill="#E535AB"/>
</g>
<defs>
<clipPath id="clip0_619_339">
<rect width="50" height="56.25" fill="white"/>
</clipPath>
</defs>
</svg>
