<svg width="70" height="70" viewBox="0 0 70 70" fill="none" xmlns="http://www.w3.org/2000/svg">
<circle cx="35" cy="35" r="35" fill="#E1FAF8"/>
<g clip-path="url(#clip0_619_336)">
<path d="M39.9167 32.0919C42.4284 30.0147 43.5415 17.7358 44.6288 13.322C45.7169 8.90895 50.2136 9.13188 50.2136 9.13188C50.2136 9.13188 49.0464 11.1642 49.522 12.6806C49.9983 14.197 53.2609 15.5521 53.2609 15.5521L52.5571 17.4071C52.5571 17.4071 51.0886 17.2192 50.2136 18.9684C49.3386 20.7169 50.7759 38.0343 50.7759 38.0343C50.7759 38.0343 45.5206 48.3996 45.5206 52.7754C45.5206 57.1519 47.5924 60.8193 47.5924 60.8193H44.6859C44.6859 60.8193 40.4212 55.7443 39.547 53.2091C38.672 50.6731 39.022 48.1371 39.022 48.1371C39.022 48.1371 34.3875 47.8746 30.2773 48.1371C26.1678 48.3996 23.4264 51.9323 22.9319 53.9083C22.4373 55.885 22.2319 60.8193 22.2319 60.8193H19.9348C18.5356 56.5021 17.4239 54.9553 18.0273 52.7754C19.6966 46.7379 19.3687 43.3132 18.9822 41.7884C18.5957 40.2629 15.9783 38.9321 15.9783 38.9321C17.2603 36.32 18.569 35.0646 24.1979 34.9337C29.8269 34.8029 37.4051 34.1698 39.9167 32.0919Z" fill="#EC4815"/>
<path d="M25.299 52.5229C25.299 52.5229 25.8924 58.0186 29.0478 60.8194H31.7519C29.0478 57.7561 28.7533 49.7723 28.7533 49.7723C27.3776 50.2205 25.474 51.8236 25.299 52.5229Z" fill="#EC4815"/>
</g>
<defs>
<clipPath id="clip0_619_336">
<rect width="37.2826" height="51.7391" fill="white" transform="translate(15.9783 9.13049)"/>
</clipPath>
</defs>
</svg>
