<svg width="60" height="44" viewBox="0 0 60 44" fill="none" xmlns="http://www.w3.org/2000/svg">
<g clip-path="url(#clip0_619_230)">
<path d="M58.7615 16.5228C57.4104 15.5853 54.3142 15.2338 51.8935 15.7025C51.612 13.3588 50.3172 11.3081 48.0654 9.49181L46.7706 8.55434L45.8699 9.90195C44.744 11.6597 44.181 14.1205 44.3499 16.4642C44.4062 17.2845 44.6877 18.7492 45.5321 20.0383C44.744 20.507 43.1114 21.0929 40.9722 21.0929H0.270649L0.158059 21.5616C-0.236009 23.9053 -0.236009 31.2292 4.38021 36.854C7.87052 41.1312 13.0497 43.299 19.8614 43.299C34.6108 43.299 45.5321 36.2095 50.655 23.378C52.6816 23.4366 57.0163 23.378 59.2119 18.9836C59.2682 18.8664 59.3808 18.6321 59.7748 17.7532L60 17.2845L58.7615 16.5228ZM32.8094 0H26.6169V5.85914H32.8094V0ZM32.8094 7.03097H26.6169V12.8901H32.8094V7.03097ZM25.491 7.03097H19.2985V12.8901H25.491V7.03097ZM18.1726 7.03097H11.9801V12.8901H18.1726V7.03097ZM10.8542 14.0619H4.66169V19.9211H10.8542V14.0619ZM18.1726 14.0619H11.9801V19.9211H18.1726V14.0619ZM25.491 14.0619H19.2985V19.9211H25.491V14.0619ZM32.8094 14.0619H26.6169V19.9211H32.8094V14.0619ZM40.1277 14.0619H33.9353V19.9211H40.1277V14.0619Z" fill="#2396ED"/>
</g>
<defs>
<clipPath id="clip0_619_230">
<rect width="60" height="43.3594" fill="white"/>
</clipPath>
</defs>
</svg>
