<svg width="40" height="61" viewBox="0 0 40 61" fill="none" xmlns="http://www.w3.org/2000/svg">
<g clip-path="url(#clip0_619_219)">
<path d="M10 60.0938C15.52 60.0938 20 55.6137 20 50.0938V40.0938H10C4.48 40.0938 0 44.5738 0 50.0938C0 55.6137 4.48 60.0938 10 60.0938Z" fill="#0ACF83"/>
<path d="M0 30.0938C0 24.5738 4.48 20.0938 10 20.0938H20V40.0938H10C4.48 40.0938 0 35.6137 0 30.0938Z" fill="#A259FF"/>
<path d="M0 10.0938C0 4.57375 4.48 0.09375 10 0.09375H20V20.0938H10C4.48 20.0938 0 15.6137 0 10.0938Z" fill="#F24E1E"/>
<path d="M20 0.09375H30C35.52 0.09375 40 4.57375 40 10.0938C40 15.6137 35.52 20.0938 30 20.0938H20V0.09375Z" fill="#FF7262"/>
<path d="M40 30.0938C40 35.6137 35.52 40.0938 30 40.0938C24.48 40.0938 20 35.6137 20 30.0938C20 24.5738 24.48 20.0938 30 20.0938C35.52 20.0938 40 24.5738 40 30.0938Z" fill="#1ABCFE"/>
</g>
<defs>
<clipPath id="clip0_619_219">
<rect width="40" height="60" fill="white" transform="translate(0 0.09375)"/>
</clipPath>
</defs>
</svg>
