<svg width="50" height="54" viewBox="0 0 50 54" fill="none" xmlns="http://www.w3.org/2000/svg">
<g clip-path="url(#clip0_619_226)">
<path d="M3.14307 3.19111L32.0488 1.05626C35.5994 0.75153 36.5118 0.957005 38.7442 2.57991L47.9714 9.08022C49.4933 10.1981 50 10.5029 50 11.72V47.3699C50 49.604 49.1885 50.9257 46.3485 51.1277L12.7812 53.1598C10.6499 53.2608 9.63467 52.956 8.51849 51.5334L1.7239 42.698C0.50498 41.0716 0 39.8544 0 38.4318V6.74338C0 4.91675 0.811451 3.3931 3.14307 3.19111Z" fill="white"/>
<path d="M32.0488 1.05626L3.14307 3.19111C0.811451 3.3931 0 4.91675 0 6.74338V38.4318C0 39.8544 0.50498 41.0716 1.7239 42.698L8.51849 51.5334C9.63467 52.956 10.6499 53.2608 12.7812 53.1598L46.3485 51.1277C49.1868 50.9257 50 49.604 50 47.3699V11.72C50 10.5656 49.5438 10.233 48.2012 9.24739C48.124 9.19174 48.0468 9.13602 47.9696 9.08022L38.7442 2.57991C36.5118 0.957005 35.5994 0.75153 32.0488 1.05626ZM13.5404 11.1367C10.7996 11.3213 10.178 11.3631 8.62123 10.0971L4.66323 6.94886C4.26099 6.54139 4.46298 6.03293 5.47642 5.93193L33.2643 3.90156C35.5976 3.69783 36.8131 4.51102 37.7255 5.22148L42.4915 8.67449C42.6952 8.77723 43.2019 9.38495 42.5925 9.38495L13.8957 11.1123L13.5404 11.1367ZM10.3451 47.0652V16.8012C10.3451 15.4795 10.7509 14.8701 11.9663 14.7673L44.9258 12.838C46.0437 12.737 46.5487 13.4474 46.5487 14.7673V44.8293C46.5487 46.151 46.345 47.2689 44.5201 47.3699L12.9797 49.1983C11.1548 49.2993 10.3451 48.6916 10.3451 47.0652ZM41.4798 18.4241C41.6818 19.3383 41.4798 20.2525 40.5656 20.3569L39.0454 20.6582V43.0027C37.7255 43.7132 36.5101 44.1189 35.4949 44.1189C33.872 44.1189 33.4663 43.6104 32.2508 42.0885L22.3097 26.4481V41.58L25.4545 42.2922C25.4545 42.2922 25.4545 44.1206 22.9174 44.1206L15.9225 44.5263C15.7188 44.1189 15.9225 43.1037 16.6313 42.9017L18.4579 42.395V22.3873L15.9225 22.1818C15.7188 21.2677 16.2255 19.9477 17.6464 19.845L25.1515 19.34L35.4949 35.1825V21.1667L32.8585 20.8637C32.6548 19.744 33.4663 18.9308 34.4797 18.8316L41.4798 18.4241Z" fill="black"/>
</g>
<defs>
<clipPath id="clip0_619_226">
<rect width="50" height="52.3438" fill="white" transform="translate(0 0.9375)"/>
</clipPath>
</defs>
</svg>
