<svg width="44" height="43" viewBox="0 0 44 43" fill="none" xmlns="http://www.w3.org/2000/svg">
<path d="M22.0025 1.84782e-06C9.84605 -0.00493274 0 9.87411 0 22.0675C0 31.7097 6.15931 39.906 14.7371 42.9161C15.8923 43.2073 15.7153 42.3832 15.7153 41.8206V37.9963C9.0448 38.7809 8.77444 34.3497 8.32711 33.6095C7.42263 32.06 5.28433 31.6653 5.92336 30.9251C7.4423 30.1405 8.99073 31.1224 10.7849 33.7822C12.0827 35.7116 14.6142 35.3859 15.8972 35.0652C16.1774 33.9056 16.7771 32.8693 17.6029 32.065C10.6915 30.8214 7.81097 26.5876 7.81097 21.5543C7.81097 19.1117 8.61222 16.8664 10.1852 15.0554C9.18244 12.07 10.2786 9.51389 10.4261 9.13392C13.2821 8.87732 16.2511 11.1867 16.4822 11.3693C18.1043 10.9301 19.9575 10.6982 22.032 10.6982C24.1162 10.6982 25.9743 10.94 27.6112 11.3841C28.1667 10.9597 30.9195 8.97602 33.5739 9.21781C33.7165 9.59778 34.7881 12.0947 33.8443 15.0406C35.4369 16.8566 36.248 19.1215 36.248 21.5691C36.248 26.6122 33.3478 30.851 26.4167 32.0748C27.0104 32.6609 27.4818 33.3599 27.8033 34.1309C28.1249 34.9019 28.2902 35.7294 28.2896 36.5653V42.1167C28.3289 42.5608 28.2896 43 29.0269 43C37.7325 40.0541 44 31.7985 44 22.0724C44 9.87411 34.149 1.84782e-06 22.0025 1.84782e-06Z" fill="black"/>
</svg>
