<svg width="48" height="48" viewBox="0 0 48 48" fill="none" xmlns="http://www.w3.org/2000/svg">
<g clip-path="url(#clip0_664_198)">
<path d="M7.80675 38.0677H13.7726V23.579L5.25 17.1871V35.5109C5.25 36.9256 6.39638 38.0677 7.80675 38.0677Z" fill="#4285F4"/>
<path d="M34.2272 38.0677H40.1933C41.6079 38.0677 42.75 36.9215 42.75 35.5109V17.1871L34.2272 23.579" fill="#34A853"/>
<path d="M34.2272 12.4995V23.5791L42.75 17.1872V13.7777C42.75 10.6159 39.1406 8.81326 36.6137 10.7096" fill="#FBBC04"/>
<path d="M13.7728 23.5791V12.4997L24 20.1701L34.2272 12.4995V23.5791L24 31.2497" fill="#EA4335"/>
<path d="M5.25 13.7781V17.1871L13.7726 23.5791V12.4997L11.3863 10.7099C8.85506 8.8135 5.25 10.6161 5.25 13.7781Z" fill="#C5221F"/>
</g>
<defs>
<clipPath id="clip0_664_198">
<rect width="48" height="48" fill="white"/>
</clipPath>
</defs>
</svg>
